<svg xmlns="http://www.w3.org/2000/svg" viewBox="0 0 20 20"><circle cx="10" cy="10" r="10" fill="#fff"/><path fill="url(#g)" d="M9.188 2.5c.966 0 1.75.784 1.75 1.75v.875h.542c2.796 0 3.395.6 3.395 3.395v.543h.875a1.75 1.75 0 1 1 0 3.5h-.875v.542c0 2.796-.6 3.395-3.395 3.395H6.895c-2.796 0-3.395-.6-3.395-3.395V8.52c0-2.796.6-3.395 3.395-3.395h.543V4.25c0-.966.783-1.75 1.75-1.75Zm0 4.813a.328.328 0 0 0-.308.212l-.81 2.17-2.17.81a.328.328 0 0 0 0 .615l2.17.813.81 2.168a.328.328 0 0 0 .614-.001l.814-2.17 2.168-.81a.328.328 0 0 0-.001-.614l-2.17-.812-.81-2.169a.328.328 0 0 0-.307-.213Z"/><defs><linearGradient id="g" x1="3.5" x2="14.875" y1="5.125" y2="16.5" gradientUnits="userSpaceOnUse"><stop stop-color="#119ee2"/><stop offset="0.33" stop-color="#256bb1"/><stop offset="1" stop-color="#3b1c66"/></linearGradient></defs></svg>
