<svg xmlns="http://www.w3.org/2000/svg" viewBox="0 0 20 20"><path fill="url(#g)" d="M8.5 2a2 2 0 0 1 2 2v1h.621C14.315 5 15 5.685 15 8.879V9.5h1a2 2 0 1 1 0 4h-1v.621C15 17.315 14.315 18 11.121 18H5.88C2.685 18 2 17.315 2 14.121V8.88C2 5.685 2.685 5 5.879 5H6.5V4a2 2 0 0 1 2-2Zm0 5.5a.375.375 0 0 0-.352.244l-.926 2.478-2.478.926a.376.376 0 0 0 0 .704l2.478.927.928 2.479a.376.376 0 0 0 .701-.002l.928-2.478 2.479-.928a.376.376 0 0 0-.002-.701l-2.478-.927-.926-2.478A.375.375 0 0 0 8.5 7.5Z"/><defs><linearGradient id="g" x1="2" x2="15" y1="5" y2="18" gradientUnits="userSpaceOnUse"><stop stop-color="#119ee2"/><stop offset="0.33" stop-color="#256bb1"/><stop offset="1" stop-color="#3b1c66"/></linearGradient></defs></svg>
