<svg xmlns="http://www.w3.org/2000/svg" viewBox="0 0 103 20"><path d="M8.5 2a2 2 0 0 1 2 2v1h.621C14.315 5 15 5.685 15 8.879V9.5h1a2 2 0 1 1 0 4h-1v.621C15 17.315 14.315 18 11.121 18H5.88C2.685 18 2 17.315 2 14.121V8.88C2 5.685 2.685 5 5.879 5H6.5V4a2 2 0 0 1 2-2Zm0 5.5a.375.375 0 0 0-.352.244l-.926 2.478-2.478.926a.376.376 0 0 0 0 .704l2.478.927.928 2.479a.376.376 0 0 0 .701-.002l.928-2.478 2.479-.928a.376.376 0 0 0-.002-.701l-2.478-.927-.926-2.478A.375.375 0 0 0 8.5 7.5Z" fill="url(#g)"/><path d="M26.368 6.6c.416 0 .804.12 1.164.36.368.24.664.564.888.972.224.408.336.864.336 1.368 0 .496-.112.948-.336 1.356-.224.408-.52.736-.888.984-.36.24-.748.36-1.164.36H24.16l.12-.216v2.484a.766.766 0 0 1-.192.528.66.66 0 0 1-.504.204.646.646 0 0 1-.492-.204.766.766 0 0 1-.192-.528V7.332a.718.718 0 0 1 .732-.732h2.736Zm0 4.032c.152 0 .3-.064.444-.192.144-.128.264-.292.36-.492a1.53 1.53 0 0 0 0-1.296c-.096-.2-.216-.36-.36-.48-.144-.128-.292-.192-.444-.192h-2.232l.144-.216v3.06l-.132-.192h2.22ZM31.57 14.268a.718.718 0 0 1-.732.732.685.685 0 0 1-.504-.204.74.74 0 0 1-.203-.528V6.852a.718.718 0 0 1 .732-.732c.207 0 .375.072.503.216a.7.7 0 0 1 .204.516v7.416ZM38.5 8.46a.7.7 0 0 1 .517.204.714.714 0 0 1 .204.528v5.076a.74.74 0 0 1-.204.528.7.7 0 0 1-.516.204.7.7 0 0 1-.516-.204.74.74 0 0 1-.204-.528v-.588l.264.108c0 .104-.056.232-.168.384a2.39 2.39 0 0 1-.456.432c-.192.144-.42.268-.684.372a2.374 2.374 0 0 1-.84.144c-.552 0-1.052-.14-1.5-.42a3.098 3.098 0 0 1-1.068-1.176c-.256-.504-.384-1.08-.384-1.728 0-.656.128-1.232.384-1.728a3.019 3.019 0 0 1 1.056-1.176c.44-.288.928-.432 1.464-.432a2.773 2.773 0 0 1 1.692.552c.216.16.38.324.492.492.12.16.18.296.18.408l-.432.156v-.876a.7.7 0 0 1 .204-.516.68.68 0 0 1 .516-.216Zm-2.423 5.34c.352 0 .66-.088.924-.264a1.74 1.74 0 0 0 .612-.72c.152-.304.228-.644.228-1.02 0-.384-.076-.728-.228-1.032a1.74 1.74 0 0 0-.612-.72 1.627 1.627 0 0 0-.924-.264c-.344 0-.648.088-.912.264a1.827 1.827 0 0 0-.624.72 2.382 2.382 0 0 0-.216 1.032c0 .376.072.716.216 1.02.152.304.36.544.624.72.264.176.568.264.912.264ZM43.636 8.46c.456 0 .852.048 1.188.144.344.096.608.232.792.408a.784.784 0 0 1 .288.612c0 .16-.048.312-.144.456a.482.482 0 0 1-.42.204.954.954 0 0 1-.324-.048 1.016 1.016 0 0 1-.216-.144 1.037 1.037 0 0 0-.6-.264 2.022 2.022 0 0 0-.36-.048c-.408 0-.756.088-1.044.264-.28.176-.496.416-.648.72a2.23 2.23 0 0 0-.228 1.032c0 .384.076.728.228 1.032.16.296.376.532.648.708.28.176.6.264.96.264.2 0 .372-.012.516-.036a1.28 1.28 0 0 0 .36-.108c.112-.064.212-.132.3-.204.088-.072.22-.108.396-.108.208 0 .368.068.48.204a.703.703 0 0 1 .168.48c0 .2-.112.384-.336.552-.224.16-.52.292-.888.396-.36.096-.752.144-1.176.144-.632 0-1.18-.144-1.644-.432a3.013 3.013 0 0 1-1.08-1.2 3.78 3.78 0 0 1-.372-1.692c0-.656.132-1.232.396-1.728a2.983 2.983 0 0 1 1.116-1.176c.48-.288 1.028-.432 1.644-.432ZM50.038 15.12c-.68 0-1.272-.14-1.776-.42a3.037 3.037 0 0 1-1.152-1.164c-.264-.488-.396-1.04-.396-1.656 0-.72.144-1.332.432-1.836a3.13 3.13 0 0 1 1.152-1.176 2.958 2.958 0 0 1 1.5-.408c.408 0 .792.084 1.152.252.368.168.692.4.972.696.28.288.5.624.66 1.008.168.384.252.792.252 1.224a.616.616 0 0 1-.228.468.763.763 0 0 1-.504.18h-4.584l-.36-1.2h4.404l-.264.24v-.324c-.016-.232-.1-.44-.252-.624a1.48 1.48 0 0 0-.552-.432 1.49 1.49 0 0 0-.696-.168c-.24 0-.464.032-.672.096a1.287 1.287 0 0 0-.54.324 1.572 1.572 0 0 0-.36.612c-.088.256-.132.58-.132.972 0 .432.088.8.264 1.104.184.296.416.524.696.684.288.152.592.228.912.228.296 0 .532-.024.708-.072.176-.048.316-.104.42-.168.112-.072.212-.132.3-.18a.915.915 0 0 1 .408-.108c.176 0 .32.06.432.18.12.12.18.26.18.42 0 .216-.112.412-.336.588-.208.176-.5.332-.876.468a3.588 3.588 0 0 1-1.164.192ZM54.813 15a.7.7 0 0 1-.517-.204.74.74 0 0 1-.203-.528V9.312a.7.7 0 0 1 .203-.516.68.68 0 0 1 .517-.216.68.68 0 0 1 .515.216.7.7 0 0 1 .204.516v1.128l-.083-.804c.087-.192.2-.36.336-.504.144-.152.304-.276.48-.372.175-.104.364-.18.563-.228.2-.048.4-.072.6-.072.24 0 .44.068.6.204.169.136.253.296.253.48 0 .264-.069.456-.204.576a.684.684 0 0 1-.444.168c-.153 0-.293-.028-.42-.084a1.034 1.034 0 0 0-.864.024 1.21 1.21 0 0 0-.408.312c-.12.144-.22.324-.3.54a2.282 2.282 0 0 0-.108.744v2.844a.74.74 0 0 1-.205.528.7.7 0 0 1-.516.204ZM65.623 15a.772.772 0 0 1-.552-.204.718.718 0 0 1-.216-.528v-6.96h1.56v6.96a.7.7 0 0 1-.228.528.788.788 0 0 1-.564.204ZM62.97 7.98a.766.766 0 0 1-.528-.192.66.66 0 0 1-.204-.504c0-.208.068-.372.204-.492a.766.766 0 0 1 .528-.192h5.328c.208 0 .38.064.516.192a.642.642 0 0 1 .216.504.642.642 0 0 1-.216.504.751.751 0 0 1-.516.18H62.97ZM74.957 11.796c0 .656-.148 1.236-.444 1.74a3.1 3.1 0 0 1-1.176 1.164c-.488.28-1.036.42-1.644.42a3.31 3.31 0 0 1-1.656-.42 3.216 3.216 0 0 1-1.176-1.164c-.288-.504-.432-1.084-.432-1.74 0-.656.144-1.232.432-1.728a3.19 3.19 0 0 1 1.176-1.176 3.238 3.238 0 0 1 1.656-.432c.608 0 1.156.144 1.644.432.496.28.888.672 1.176 1.176.296.496.444 1.072.444 1.728Zm-1.44 0c0-.408-.084-.76-.252-1.056a1.764 1.764 0 0 0-1.572-.96c-.336 0-.644.084-.924.252a1.88 1.88 0 0 0-.66.708c-.16.296-.24.648-.24 1.056 0 .4.08.752.24 1.056.168.296.388.528.66.696.28.168.588.252.924.252a1.784 1.784 0 0 0 1.572-.948c.168-.304.252-.656.252-1.056ZM82.445 11.796c0 .656-.147 1.236-.444 1.74a3.1 3.1 0 0 1-1.175 1.164c-.488.28-1.036.42-1.644.42a3.31 3.31 0 0 1-1.657-.42 3.216 3.216 0 0 1-1.175-1.164c-.288-.504-.432-1.084-.432-1.74 0-.656.143-1.232.431-1.728a3.19 3.19 0 0 1 1.176-1.176 3.238 3.238 0 0 1 1.656-.432c.609 0 1.157.144 1.645.432.496.28.888.672 1.175 1.176.296.496.444 1.072.444 1.728Zm-1.44 0c0-.408-.084-.76-.251-1.056a1.764 1.764 0 0 0-1.573-.96c-.335 0-.644.084-.924.252a1.88 1.88 0 0 0-.66.708c-.16.296-.24.648-.24 1.056 0 .4.08.752.24 1.056.169.296.389.528.66.696.28.168.588.252.924.252a1.784 1.784 0 0 0 1.572-.948c.168-.304.252-.656.252-1.056ZM85.266 14.268a.718.718 0 0 1-.732.732.685.685 0 0 1-.504-.204.74.74 0 0 1-.204-.528V6.852a.718.718 0 0 1 .732-.732c.208 0 .376.072.504.216a.7.7 0 0 1 .204.516v7.416ZM87.78 15a.7.7 0 0 1-.516-.204.74.74 0 0 1-.204-.528V6.852a.7.7 0 0 1 .204-.516.68.68 0 0 1 .516-.216.68.68 0 0 1 .516.216.7.7 0 0 1 .204.516v7.416a.74.74 0 0 1-.204.528.7.7 0 0 1-.516.204Zm3.816-6.42c.184 0 .344.076.48.228.136.152.204.3.204.444 0 .192-.096.372-.288.54l-3.612 3.324-.06-1.656 2.748-2.652a.725.725 0 0 1 .528-.228Zm.18 6.408a.684.684 0 0 1-.528-.24l-2.22-2.352 1.092-1.008 2.16 2.352c.152.16.228.34.228.54 0 .208-.084.38-.252.516-.16.128-.32.192-.48.192ZM95.128 14.268a.74.74 0 0 1-.204.528.7.7 0 0 1-.516.204.7.7 0 0 1-.516-.204.74.74 0 0 1-.204-.528V9.312a.7.7 0 0 1 .204-.516.68.68 0 0 1 .516-.216.68.68 0 0 1 .516.216.7.7 0 0 1 .204.516v4.956ZM94.396 7.8c-.272 0-.464-.044-.576-.132-.112-.088-.168-.244-.168-.468v-.228c0-.232.06-.388.18-.468.128-.088.32-.132.576-.132.28 0 .476.044.588.132.112.088.168.244.168.468V7.2c0 .232-.06.392-.18.48-.12.08-.316.12-.588.12ZM96.68 8.7h2.844a.65.65 0 0 1 .48.192.651.651 0 0 1 .192.48c0 .184-.064.34-.192.468a.674.674 0 0 1-.48.18H96.68a.651.651 0 0 1-.48-.192.651.651 0 0 1-.192-.48c0-.184.064-.336.192-.456a.651.651 0 0 1 .48-.192Zm1.284-1.5c.208 0 .376.072.504.216a.7.7 0 0 1 .204.516v5.34c0 .112.02.204.06.276a.42.42 0 0 0 .18.156.705.705 0 0 0 .516 0 .61.61 0 0 1 .276-.06c.112 0 .212.052.3.156.096.104.144.248.144.432 0 .224-.124.408-.372.552-.24.144-.5.216-.78.216-.168 0-.356-.012-.564-.036-.2-.032-.392-.1-.576-.204a1.314 1.314 0 0 1-.444-.504c-.12-.224-.18-.532-.18-.924v-5.4a.718.718 0 0 1 .732-.732Z" fill="#181b20"/><defs><linearGradient id="g" x1="2" x2="15" y1="5" y2="18" gradientUnits="userSpaceOnUse"><stop stop-color="#119ee2"/><stop offset="0.33" stop-color="#256bb1"/><stop offset="1" stop-color="#3b1c66"/></linearGradient></defs></svg>
