<svg xmlns="http://www.w3.org/2000/svg" viewBox="0 0 373 558"><path d="M179.419 440c-1.223 15.92-.489 52.536 12.232 71.639C207.554 535.519 210 545.574 210 555" stroke="#000" stroke-width="6" stroke-linecap="round"/><path d="M176.402 427.5c1.155-2 4.041-2 5.196 0l7.794 13.5c1.155 2-.288 4.5-2.598 4.5h-15.588c-2.31 0-3.753-2.5-2.598-4.5l7.794-13.5z" fill="#ad3a56"/><path d="M372.5 203c-5 108.921-96.616 211.092-192.576 230C83.334 415.352 5.051 308.836 0 199.798 0 81.936 95.273 0 192.551 0 289.828 0 377.92 84.92 372.5 203z" fill="url(#g0)"/><circle cx="95.5" cy="233.5" r="31.5" fill="#cd0031" fill-opacity="0.5"/><circle cx="267.5" cy="233.5" r="31.5" fill="#cd0031" fill-opacity="0.4"/><ellipse cx="239.5" cy="207" rx="16.5" ry="16" fill="#222"/><ellipse cx="123.5" cy="207" rx="16.5" ry="16" fill="#222"/><mask id="m0" maskUnits="userSpaceOnUse" x="153" y="228" width="58" height="40"><path d="M153.886 231.307a3 3 0 013-3h50.762a3 3 0 013 3v33.102a3 3 0 01-3 3h-50.762a3 3 0 01-3-3v-33.102z" fill="#c4c4c4"/></mask><g mask="url(#m0)"><path d="M210.648 230.199c0 15.674-12.707 28.381-28.381 28.381s-28.381-12.707-28.381-28.381 12.707-28.381 28.381-28.381 28.381 12.707 28.381 28.381z" fill="#222"/></g><defs><radialGradient id="g0" cx="0" cy="0" r="1" gradientUnits="userSpaceOnUse" gradientTransform="matrix(304.924 -182.15 158.899 266.001 40.404 279.843)"><stop stop-color="#ff3767"/><stop offset="0.807" stop-color="#f36d76"/><stop offset="1" stop-color="#ffe1da"/></radialGradient></defs></svg>
